<svg width="32" height="32" viewBox="0 0 32 32" fill="none" xmlns="http://www.w3.org/2000/svg">
<path d="M16 6.15494C19.2063 6.15494 19.5859 6.16896 20.8469 6.22505C22.0188 6.27647 22.6516 6.4728 23.0734 6.63641C23.6313 6.85143 24.0344 7.1132 24.4516 7.52923C24.8734 7.94994 25.1313 8.34727 25.3469 8.90353C25.5109 9.32423 25.7078 9.95996 25.7594 11.1239C25.8156 12.386 25.8297 12.7646 25.8297 15.9573C25.8297 19.1547 25.8156 19.5333 25.7594 20.7907C25.7078 21.9594 25.5109 22.5904 25.3469 23.0111C25.1313 23.5674 24.8688 23.9694 24.4516 24.3854C24.0297 24.8061 23.6313 25.0632 23.0734 25.2782C22.6516 25.4418 22.0141 25.6382 20.8469 25.6896C19.5813 25.7457 19.2016 25.7597 16 25.7597C12.7938 25.7597 12.4141 25.7457 11.1531 25.6896C9.98125 25.6382 9.34844 25.4418 8.92656 25.2782C8.36875 25.0632 7.96563 24.8014 7.54844 24.3854C7.12656 23.9647 6.86875 23.5674 6.65313 23.0111C6.48906 22.5904 6.29219 21.9547 6.24063 20.7907C6.18438 19.5286 6.17031 19.15 6.17031 15.9573C6.17031 12.76 6.18438 12.3813 6.24063 11.1239C6.29219 9.95529 6.48906 9.32423 6.65313 8.90353C6.86875 8.34727 7.13125 7.94526 7.54844 7.52923C7.97031 7.10853 8.36875 6.85143 8.92656 6.63641C9.34844 6.4728 9.98594 6.27647 11.1531 6.22505C12.4141 6.16896 12.7938 6.15494 16 6.15494ZM16 4C12.7422 4 12.3344 4.01402 11.0547 4.07012C9.77969 4.12621 8.90313 4.33189 8.14375 4.62638C7.35156 4.9349 6.68125 5.34158 6.01563 6.01003C5.34531 6.6738 4.9375 7.34225 4.62813 8.12757C4.33281 8.88951 4.12656 9.75896 4.07031 11.0304C4.01406 12.3112 4 12.7179 4 15.9667C4 19.2154 4.01406 19.6221 4.07031 20.8982C4.12656 22.1697 4.33281 23.0438 4.62813 23.8011C4.9375 24.5911 5.34531 25.2595 6.01563 25.9233C6.68125 26.5871 7.35156 26.9984 8.13906 27.3023C8.90313 27.5968 9.775 27.8025 11.05 27.8585C12.3297 27.9146 12.7375 27.9287 15.9953 27.9287C19.2531 27.9287 19.6609 27.9146 20.9406 27.8585C22.2156 27.8025 23.0922 27.5968 23.8516 27.3023C24.6391 26.9984 25.3094 26.5871 25.975 25.9233C26.6406 25.2595 27.0531 24.5911 27.3578 23.8058C27.6531 23.0438 27.8594 22.1744 27.9156 20.9029C27.9719 19.6268 27.9859 19.2201 27.9859 15.9713C27.9859 12.7226 27.9719 12.3159 27.9156 11.0398C27.8594 9.76831 27.6531 8.89418 27.3578 8.13691C27.0625 7.34225 26.6547 6.6738 25.9844 6.01003C25.3188 5.34625 24.6484 4.9349 23.8609 4.63105C23.0969 4.33656 22.225 4.13089 20.95 4.07479C19.6656 4.01402 19.2578 4 16 4Z" fill="black"/>
<path d="M16 9.81973C12.5969 9.81973 9.83594 12.573 9.83594 15.9667C9.83594 19.3603 12.5969 22.1136 16 22.1136C19.4031 22.1136 22.1641 19.3603 22.1641 15.9667C22.1641 12.573 19.4031 9.81973 16 9.81973ZM16 19.954C13.7922 19.954 12.0016 18.1684 12.0016 15.9667C12.0016 13.765 13.7922 11.9793 16 11.9793C18.2078 11.9793 19.9984 13.765 19.9984 15.9667C19.9984 18.1684 18.2078 19.954 16 19.954Z" fill="black"/>
<path d="M23.8469 9.57661C23.8469 10.3713 23.2 11.0117 22.4078 11.0117C21.6109 11.0117 20.9688 10.3666 20.9688 9.57661C20.9688 8.78195 21.6156 8.14154 22.4078 8.14154C23.2 8.14154 23.8469 8.78662 23.8469 9.57661Z" fill="black"/>
</svg>