<svg width="32" height="32" viewBox="0 0 32 32" fill="none" xmlns="http://www.w3.org/2000/svg">
<path d="M9.23903 13.225C8.78268 13.225 8.41211 13.596 8.41211 14.0529C8.41211 14.5097 8.78268 14.8807 9.23903 14.8807C9.69537 14.8807 10.0659 14.5097 10.0659 14.0529C10.0659 13.596 9.69537 13.225 9.23903 13.225Z" fill="black"/>
<path d="M17.4022 14.9196C17.8938 14.9196 18.2923 14.5207 18.2923 14.0286C18.2923 13.5365 17.8938 13.1375 17.4022 13.1375C16.9107 13.1375 16.5122 13.5365 16.5122 14.0286C16.5122 14.5207 16.9107 14.9196 17.4022 14.9196Z" fill="black"/>
<path d="M24.7927 5H7.21057C5.43699 5 4 6.43861 4 8.21419V18.6603C4 20.4359 5.43699 21.8745 7.21057 21.8745H13.4197L15.5315 26.8562C15.5315 26.8562 15.6772 27.2887 16.0283 27.2887C16.3795 27.2887 16.5251 26.8562 16.5251 26.8562L18.6369 21.8745H24.7894C26.563 21.8745 28 20.4359 28 18.6603V8.21419C28.0032 6.43861 26.5662 5 24.7927 5ZM11.541 14.2343C11.5313 16.1444 9.55863 16.1978 9.55863 16.1978C8.79644 16.1978 8.36437 15.6924 8.36437 15.6924V16.0358H6.929V10.1064C6.92253 10.1048 6.92253 10.1048 6.929 10.1032V10.1064C7.018 10.121 8.36599 10.1032 8.36599 10.1032V12.3712C8.7042 11.7945 9.67999 11.8042 9.67999 11.8042C11.808 12.0019 11.541 14.2343 11.541 14.2343ZM14.0703 11.9857V16.0455H12.664V12.0278C12.664 11.4802 11.986 11.3296 11.986 11.3296V9.91201C14.2321 10.0027 14.0703 11.9857 14.0703 11.9857ZM17.4022 16.2011C16.1011 16.2011 15.0461 15.229 15.0461 14.0286C15.0461 12.8281 16.1011 11.8561 17.4022 11.8561C18.7033 11.8561 19.7583 12.8281 19.7583 14.0286C19.7583 15.229 18.7033 16.2011 17.4022 16.2011ZM25.1034 16.2011C25.1034 16.2011 25.1228 18.2634 23.0304 18.2634H22.3928V16.9268H22.778C22.778 16.9268 23.6583 17.0078 23.6486 15.6502C23.6486 15.6502 23.477 16.1994 22.2423 16.1994C22.2423 16.1994 20.493 16.0731 20.493 14.3639V13.7159C20.493 13.7159 20.5335 11.9436 22.4543 11.8026C22.4543 11.8026 23.2133 11.7216 23.6777 12.3502V11.9144H25.1034V16.2011Z" fill="black"/>
<path d="M22.8682 14.9001C23.349 14.9001 23.7388 14.5099 23.7388 14.0285C23.7388 13.5472 23.349 13.157 22.8682 13.157C22.3873 13.157 21.9976 13.5472 21.9976 14.0285C21.9976 14.5099 22.3873 14.9001 22.8682 14.9001Z" fill="black"/>
</svg>
