<svg width="32" height="32" viewBox="0 0 32 32" fill="none" xmlns="http://www.w3.org/2000/svg">
<path d="M13.822 23.1725C13.822 24.7773 12.512 26.0899 10.911 26.0899C9.30995 26.0899 8 24.7773 8 23.1725V7.83797C8 6.23326 9.30995 4.92058 10.911 4.92058C12.512 4.92058 13.822 6.23326 13.822 7.83797V23.1725Z" fill="url(#paint0_linear)"/>
<path d="M12.5224 25.6599C11.1612 26.5134 9.351 26.1046 8.49891 24.7517C7.64682 23.3989 8.06372 21.5927 9.42487 20.7392L21.5333 13.1435C22.8944 12.29 24.7047 12.6988 25.5568 14.0517C26.4088 15.4045 25.9919 17.2107 24.6308 18.0642L12.5224 25.6599Z" fill="black"/>
<path d="M12.5221 5.33964C11.1609 4.48618 9.34997 4.89503 8.49862 6.24786C7.64726 7.6007 8.06343 9.40691 9.42385 10.2604L21.5301 17.8539C22.8912 18.7074 24.7015 18.2985 25.5535 16.9457C26.4056 15.5929 25.9887 13.7867 24.6276 12.9332L12.5221 5.33964Z" fill="black"/>
<defs>
<linearGradient id="paint0_linear" x1="10.9112" y1="7" x2="10.9112" y2="18.5" gradientUnits="userSpaceOnUse">
<stop stop-opacity="0"/>
<stop offset="1"/>
</linearGradient>
</defs>
</svg>