<svg width="32" height="32" viewBox="0 0 32 32" fill="none" xmlns="http://www.w3.org/2000/svg">
<path d="M11.5502 25.6896C20.6045 25.6896 25.5583 18.2071 25.5583 11.7204C25.5583 11.51 25.5536 11.295 25.5442 11.0846C26.5079 10.3897 27.3395 9.52886 28 8.54265C27.1025 8.94084 26.1496 9.2009 25.1739 9.31394C26.2013 8.69982 26.9705 7.73508 27.3391 6.59854C26.3726 7.16974 25.3156 7.57267 24.2134 7.79006C23.4708 7.0032 22.489 6.48221 21.4197 6.30763C20.3504 6.13305 19.2532 6.31461 18.2977 6.82424C17.3423 7.33386 16.5818 8.14317 16.1338 9.12704C15.6859 10.1109 15.5754 11.2145 15.8195 12.2673C13.8625 12.1693 11.9479 11.6624 10.2 10.7792C8.45203 9.89608 6.90969 8.65647 5.67297 7.14078C5.0444 8.22149 4.85206 9.50033 5.13503 10.7174C5.418 11.9344 6.15506 12.9984 7.19641 13.693C6.41463 13.6682 5.64998 13.4583 4.96563 13.0806V13.1414C4.96492 14.2755 5.3581 15.3749 6.07831 16.2526C6.79852 17.1304 7.80132 17.7323 8.91625 17.9561C8.19206 18.1537 7.43198 18.1825 6.69484 18.0403C7.00945 19.0156 7.62157 19.8687 8.44577 20.4804C9.26997 21.0922 10.2651 21.432 11.2923 21.4526C9.54842 22.8187 7.39417 23.5597 5.17656 23.5561C4.78329 23.5555 4.3904 23.5315 4 23.4842C6.25286 24.9255 8.87353 25.691 11.5502 25.6896Z" fill="black"/>
</svg>
