<svg width="32" height="32" viewBox="0 0 32 32" fill="none" xmlns="http://www.w3.org/2000/svg">
<path d="M27.7609 11.18C27.7609 11.18 27.5266 9.52992 26.8047 8.80538C25.8906 7.85178 24.8688 7.84711 24.4 7.79102C21.0438 7.54794 16.0047 7.54794 16.0047 7.54794H15.9953C15.9953 7.54794 10.9562 7.54794 7.6 7.79102C7.13125 7.84711 6.10938 7.85178 5.19531 8.80538C4.47344 9.52992 4.24375 11.18 4.24375 11.18C4.24375 11.18 4 13.1199 4 15.0552V16.8689C4 18.8041 4.23906 20.744 4.23906 20.744C4.23906 20.744 4.47344 22.3941 5.19062 23.1186C6.10469 24.0722 7.30469 24.0395 7.83906 24.1423C9.76094 24.3247 16 24.3807 16 24.3807C16 24.3807 21.0438 24.3714 24.4 24.133C24.8688 24.0769 25.8906 24.0722 26.8047 23.1186C27.5266 22.3941 27.7609 20.744 27.7609 20.744C27.7609 20.744 28 18.8088 28 16.8689V15.0552C28 13.1199 27.7609 11.18 27.7609 11.18ZM13.5203 19.0705V12.344L20.0031 15.7189L13.5203 19.0705Z" fill="black"/>
</svg>